<mxfile host="65bd71144e">
    <diagram id="pZHTG7aje_dIY4gRk1hG" name="System Flow">
        <mxGraphModel dx="2987" dy="778" grid="1" gridSize="10" guides="1" tooltips="1" connect="1" arrows="1" fold="1" page="0" pageScale="1" pageWidth="1100" pageHeight="850" background="none" math="0" shadow="0">
            <root>
                <mxCell id="0"/>
                <mxCell id="1" parent="0"/>
                <mxCell id="rsiqmxEAYFlDEIXHPs_I-49" value="LOGIN PAGE" style="rounded=0;whiteSpace=wrap;html=1;strokeColor=default;align=center;verticalAlign=middle;fontFamily=Helvetica;fontSize=12;fontColor=default;fillColor=default;container=0;" parent="1" vertex="1">
                    <mxGeometry x="-800" y="283" width="80" height="30" as="geometry"/>
                </mxCell>
                <mxCell id="rsiqmxEAYFlDEIXHPs_I-58" style="edgeStyle=none;html=1;entryX=0.5;entryY=0;entryDx=0;entryDy=0;fontFamily=Helvetica;fontSize=12;fontColor=default;" parent="1" source="rsiqmxEAYFlDEIXHPs_I-52" target="rsiqmxEAYFlDEIXHPs_I-55" edge="1">
                    <mxGeometry relative="1" as="geometry"/>
                </mxCell>
                <mxCell id="rsiqmxEAYFlDEIXHPs_I-52" value="AUTHENTICATION" style="rounded=0;whiteSpace=wrap;html=1;strokeColor=default;align=center;verticalAlign=middle;fontFamily=Helvetica;fontSize=12;fontColor=default;fillColor=default;container=0;" parent="1" vertex="1">
                    <mxGeometry x="-825" y="373" width="130" height="30" as="geometry"/>
                </mxCell>
                <mxCell id="rsiqmxEAYFlDEIXHPs_I-62" style="edgeStyle=none;html=1;entryX=0.5;entryY=0;entryDx=0;entryDy=0;fontFamily=Helvetica;fontSize=12;fontColor=default;" parent="1" source="rsiqmxEAYFlDEIXHPs_I-53" target="rsiqmxEAYFlDEIXHPs_I-60" edge="1">
                    <mxGeometry relative="1" as="geometry"/>
                </mxCell>
                <mxCell id="rsiqmxEAYFlDEIXHPs_I-53" value="OTP TO&amp;nbsp;&lt;div&gt;STUDENT EMAIL&lt;/div&gt;" style="rounded=0;whiteSpace=wrap;html=1;strokeColor=default;align=center;verticalAlign=middle;fontFamily=Helvetica;fontSize=12;fontColor=default;fillColor=default;container=0;" parent="1" vertex="1">
                    <mxGeometry x="-825" y="570" width="130" height="30" as="geometry"/>
                </mxCell>
                <mxCell id="rsiqmxEAYFlDEIXHPs_I-59" style="edgeStyle=none;html=1;entryX=0.5;entryY=0;entryDx=0;entryDy=0;fontFamily=Helvetica;fontSize=12;fontColor=default;" parent="1" source="rsiqmxEAYFlDEIXHPs_I-55" target="rsiqmxEAYFlDEIXHPs_I-53" edge="1">
                    <mxGeometry relative="1" as="geometry"/>
                </mxCell>
                <mxCell id="rsiqmxEAYFlDEIXHPs_I-55" value="isVerified" style="rhombus;whiteSpace=wrap;html=1;strokeColor=default;align=center;verticalAlign=middle;fontFamily=Helvetica;fontSize=12;fontColor=default;fillColor=default;" parent="1" vertex="1">
                    <mxGeometry x="-800" y="439" width="80" height="80" as="geometry"/>
                </mxCell>
                <mxCell id="rsiqmxEAYFlDEIXHPs_I-56" value="" style="endArrow=classic;html=1;fontFamily=Helvetica;fontSize=12;fontColor=default;exitX=1;exitY=0.5;exitDx=0;exitDy=0;entryX=1;entryY=0.5;entryDx=0;entryDy=0;rounded=0;curved=0;" parent="1" source="rsiqmxEAYFlDEIXHPs_I-55" target="rsiqmxEAYFlDEIXHPs_I-49" edge="1">
                    <mxGeometry width="50" height="50" relative="1" as="geometry">
                        <mxPoint x="-700" y="590" as="sourcePoint"/>
                        <mxPoint x="-540" y="540" as="targetPoint"/>
                        <Array as="points">
                            <mxPoint x="-640" y="480"/>
                            <mxPoint x="-640" y="298"/>
                        </Array>
                    </mxGeometry>
                </mxCell>
                <mxCell id="rsiqmxEAYFlDEIXHPs_I-57" style="edgeStyle=none;html=1;entryX=0.497;entryY=-0.046;entryDx=0;entryDy=0;entryPerimeter=0;fontFamily=Helvetica;fontSize=12;fontColor=default;" parent="1" source="rsiqmxEAYFlDEIXHPs_I-49" target="rsiqmxEAYFlDEIXHPs_I-52" edge="1">
                    <mxGeometry relative="1" as="geometry"/>
                </mxCell>
                <mxCell id="rsiqmxEAYFlDEIXHPs_I-61" style="edgeStyle=none;html=1;entryX=0;entryY=1;entryDx=0;entryDy=0;fontFamily=Helvetica;fontSize=12;fontColor=default;rounded=0;curved=0;" parent="1" source="rsiqmxEAYFlDEIXHPs_I-60" target="rsiqmxEAYFlDEIXHPs_I-49" edge="1">
                    <mxGeometry relative="1" as="geometry">
                        <Array as="points">
                            <mxPoint x="-880" y="670"/>
                            <mxPoint x="-880" y="313"/>
                        </Array>
                    </mxGeometry>
                </mxCell>
                <mxCell id="rsiqmxEAYFlDEIXHPs_I-64" value="" style="edgeStyle=none;html=1;fontFamily=Helvetica;fontSize=12;fontColor=default;" parent="1" source="rsiqmxEAYFlDEIXHPs_I-60" target="rsiqmxEAYFlDEIXHPs_I-63" edge="1">
                    <mxGeometry relative="1" as="geometry"/>
                </mxCell>
                <mxCell id="rsiqmxEAYFlDEIXHPs_I-60" value="isCorrect" style="rhombus;whiteSpace=wrap;html=1;strokeColor=default;align=center;verticalAlign=middle;fontFamily=Helvetica;fontSize=12;fontColor=default;fillColor=default;" parent="1" vertex="1">
                    <mxGeometry x="-800" y="630" width="80" height="80" as="geometry"/>
                </mxCell>
                <mxCell id="rsiqmxEAYFlDEIXHPs_I-71" style="edgeStyle=none;html=1;exitX=0;exitY=0.5;exitDx=0;exitDy=0;entryX=0.5;entryY=1;entryDx=0;entryDy=0;fontFamily=Helvetica;fontSize=12;fontColor=default;rounded=0;curved=0;" parent="1" source="rsiqmxEAYFlDEIXHPs_I-63" target="rsiqmxEAYFlDEIXHPs_I-76" edge="1">
                    <mxGeometry relative="1" as="geometry">
                        <Array as="points">
                            <mxPoint x="-960" y="775"/>
                        </Array>
                    </mxGeometry>
                </mxCell>
                <mxCell id="rsiqmxEAYFlDEIXHPs_I-87" style="edgeStyle=none;html=1;exitX=0.5;exitY=1;exitDx=0;exitDy=0;entryX=0.5;entryY=0;entryDx=0;entryDy=0;fontFamily=Helvetica;fontSize=12;fontColor=default;" parent="1" source="rsiqmxEAYFlDEIXHPs_I-63" target="rsiqmxEAYFlDEIXHPs_I-86" edge="1">
                    <mxGeometry relative="1" as="geometry"/>
                </mxCell>
                <mxCell id="rsiqmxEAYFlDEIXHPs_I-63" value="DASHBOARD" style="whiteSpace=wrap;html=1;" parent="1" vertex="1">
                    <mxGeometry x="-820" y="760" width="120" height="30" as="geometry"/>
                </mxCell>
                <mxCell id="rsiqmxEAYFlDEIXHPs_I-69" value="" style="edgeStyle=none;html=1;fontFamily=Helvetica;fontSize=12;fontColor=default;" parent="1" source="rsiqmxEAYFlDEIXHPs_I-65" target="rsiqmxEAYFlDEIXHPs_I-68" edge="1">
                    <mxGeometry relative="1" as="geometry"/>
                </mxCell>
                <mxCell id="rsiqmxEAYFlDEIXHPs_I-65" value="VOTE SECTION" style="rounded=0;whiteSpace=wrap;html=1;strokeColor=default;align=center;verticalAlign=middle;fontFamily=Helvetica;fontSize=12;fontColor=default;fillColor=default;" parent="1" vertex="1">
                    <mxGeometry x="-820" y="973" width="120" height="60" as="geometry"/>
                </mxCell>
                <mxCell id="rsiqmxEAYFlDEIXHPs_I-73" style="edgeStyle=none;html=1;entryX=0.5;entryY=0;entryDx=0;entryDy=0;fontFamily=Helvetica;fontSize=12;fontColor=default;" parent="1" source="rsiqmxEAYFlDEIXHPs_I-68" target="rsiqmxEAYFlDEIXHPs_I-72" edge="1">
                    <mxGeometry relative="1" as="geometry"/>
                </mxCell>
                <mxCell id="rsiqmxEAYFlDEIXHPs_I-74" style="edgeStyle=none;html=1;exitX=1;exitY=0.5;exitDx=0;exitDy=0;entryX=1;entryY=0.5;entryDx=0;entryDy=0;fontFamily=Helvetica;fontSize=12;fontColor=default;rounded=0;curved=0;" parent="1" source="rsiqmxEAYFlDEIXHPs_I-68" target="rsiqmxEAYFlDEIXHPs_I-63" edge="1">
                    <mxGeometry relative="1" as="geometry">
                        <Array as="points">
                            <mxPoint x="-600" y="1123"/>
                            <mxPoint x="-600" y="775"/>
                        </Array>
                    </mxGeometry>
                </mxCell>
                <mxCell id="rsiqmxEAYFlDEIXHPs_I-68" value="hasVoted" style="rhombus;whiteSpace=wrap;html=1;rounded=0;" parent="1" vertex="1">
                    <mxGeometry x="-800" y="1083" width="80" height="80" as="geometry"/>
                </mxCell>
                <mxCell id="rsiqmxEAYFlDEIXHPs_I-72" value="HAS VOTED PAGE" style="rounded=0;whiteSpace=wrap;html=1;strokeColor=default;align=center;verticalAlign=middle;fontFamily=Helvetica;fontSize=12;fontColor=default;fillColor=default;" parent="1" vertex="1">
                    <mxGeometry x="-820" y="1203" width="120" height="60" as="geometry"/>
                </mxCell>
                <mxCell id="rsiqmxEAYFlDEIXHPs_I-77" style="edgeStyle=none;html=1;exitX=0.5;exitY=0;exitDx=0;exitDy=0;entryX=0;entryY=0.5;entryDx=0;entryDy=0;fontFamily=Helvetica;fontSize=12;fontColor=default;rounded=0;curved=0;" parent="1" source="rsiqmxEAYFlDEIXHPs_I-76" target="rsiqmxEAYFlDEIXHPs_I-49" edge="1">
                    <mxGeometry relative="1" as="geometry">
                        <Array as="points">
                            <mxPoint x="-960" y="298"/>
                        </Array>
                    </mxGeometry>
                </mxCell>
                <mxCell id="rsiqmxEAYFlDEIXHPs_I-76" value="LOGOUT" style="rounded=0;whiteSpace=wrap;html=1;strokeColor=default;align=center;verticalAlign=middle;fontFamily=Helvetica;fontSize=12;fontColor=default;fillColor=default;" parent="1" vertex="1">
                    <mxGeometry x="-1000" y="519" width="80" height="30" as="geometry"/>
                </mxCell>
                <mxCell id="rsiqmxEAYFlDEIXHPs_I-78" value="NO" style="text;html=1;align=center;verticalAlign=middle;whiteSpace=wrap;rounded=0;fontFamily=Helvetica;fontSize=12;fontColor=default;" parent="1" vertex="1">
                    <mxGeometry x="-657" y="373" width="60" height="30" as="geometry"/>
                </mxCell>
                <mxCell id="rsiqmxEAYFlDEIXHPs_I-81" value="NO" style="text;html=1;align=center;verticalAlign=middle;whiteSpace=wrap;rounded=0;fontFamily=Helvetica;fontSize=12;fontColor=default;" parent="1" vertex="1">
                    <mxGeometry x="-618" y="943" width="60" height="30" as="geometry"/>
                </mxCell>
                <mxCell id="rsiqmxEAYFlDEIXHPs_I-90" style="edgeStyle=none;html=1;exitX=0;exitY=0.5;exitDx=0;exitDy=0;entryX=0;entryY=0.5;entryDx=0;entryDy=0;fontFamily=Helvetica;fontSize=12;fontColor=default;rounded=0;curved=0;" parent="1" source="rsiqmxEAYFlDEIXHPs_I-86" target="rsiqmxEAYFlDEIXHPs_I-72" edge="1">
                    <mxGeometry relative="1" as="geometry">
                        <Array as="points">
                            <mxPoint x="-880" y="860"/>
                            <mxPoint x="-880" y="1233"/>
                        </Array>
                    </mxGeometry>
                </mxCell>
                <mxCell id="rsiqmxEAYFlDEIXHPs_I-91" style="edgeStyle=none;html=1;exitX=0.5;exitY=1;exitDx=0;exitDy=0;entryX=0.5;entryY=0;entryDx=0;entryDy=0;fontFamily=Helvetica;fontSize=12;fontColor=default;" parent="1" source="rsiqmxEAYFlDEIXHPs_I-86" target="rsiqmxEAYFlDEIXHPs_I-65" edge="1">
                    <mxGeometry relative="1" as="geometry"/>
                </mxCell>
                <mxCell id="rsiqmxEAYFlDEIXHPs_I-86" value="HAS&amp;nbsp;&lt;div&gt;VOTED&lt;/div&gt;" style="rhombus;whiteSpace=wrap;html=1;strokeColor=default;align=center;verticalAlign=middle;fontFamily=Helvetica;fontSize=12;fontColor=default;fillColor=default;" parent="1" vertex="1">
                    <mxGeometry x="-800" y="820" width="80" height="80" as="geometry"/>
                </mxCell>
                <mxCell id="rsiqmxEAYFlDEIXHPs_I-92" value="NO" style="text;html=1;align=center;verticalAlign=middle;whiteSpace=wrap;rounded=0;fontFamily=Helvetica;fontSize=12;fontColor=default;" parent="1" vertex="1">
                    <mxGeometry x="-778" y="920" width="60" height="30" as="geometry"/>
                </mxCell>
                <mxCell id="rsiqmxEAYFlDEIXHPs_I-94" value="NO" style="text;html=1;align=center;verticalAlign=middle;whiteSpace=wrap;rounded=0;fontFamily=Helvetica;fontSize=12;fontColor=default;" parent="1" vertex="1">
                    <mxGeometry x="-922" y="450" width="60" height="30" as="geometry"/>
                </mxCell>
            </root>
        </mxGraphModel>
    </diagram>
    <diagram id="2FE_sGPb9OaQsMFJmJ0W" name="Authentication Flow">
        <mxGraphModel dx="1072" dy="867" grid="0" gridSize="10" guides="1" tooltips="1" connect="1" arrows="1" fold="1" page="0" pageScale="1" pageWidth="850" pageHeight="1100" math="0" shadow="0">
            <root>
                <mxCell id="0"/>
                <mxCell id="1" parent="0"/>
                <mxCell id="kmZ-sMRNYnv9kZFRikgs-1" value="STUDENT&amp;nbsp;&lt;div&gt;DETAIL&amp;nbsp;&lt;/div&gt;&lt;div&gt;DATABASE&lt;/div&gt;" style="rounded=0;whiteSpace=wrap;html=1;strokeColor=default;align=center;verticalAlign=middle;fontFamily=Helvetica;fontSize=12;fontColor=default;fillColor=default;" parent="1" vertex="1">
                    <mxGeometry x="20" y="70" width="120" height="60" as="geometry"/>
                </mxCell>
                <mxCell id="kmZ-sMRNYnv9kZFRikgs-7" style="edgeStyle=none;html=1;exitX=0.5;exitY=1;exitDx=0;exitDy=0;fontFamily=Helvetica;fontSize=12;fontColor=default;" parent="1" source="kmZ-sMRNYnv9kZFRikgs-2" target="kmZ-sMRNYnv9kZFRikgs-6" edge="1">
                    <mxGeometry relative="1" as="geometry"/>
                </mxCell>
                <mxCell id="kmZ-sMRNYnv9kZFRikgs-2" value="STUDENT&amp;nbsp;&lt;div&gt;DETAILS&lt;/div&gt;" style="rounded=0;whiteSpace=wrap;html=1;strokeColor=default;align=center;verticalAlign=middle;fontFamily=Helvetica;fontSize=12;fontColor=default;fillColor=default;" parent="1" vertex="1">
                    <mxGeometry x="190" y="-30" width="120" height="60" as="geometry"/>
                </mxCell>
                <mxCell id="kmZ-sMRNYnv9kZFRikgs-9" style="edgeStyle=none;html=1;exitX=0;exitY=0.5;exitDx=0;exitDy=0;entryX=1;entryY=0.5;entryDx=0;entryDy=0;fontFamily=Helvetica;fontSize=12;fontColor=default;" parent="1" source="kmZ-sMRNYnv9kZFRikgs-6" target="kmZ-sMRNYnv9kZFRikgs-1" edge="1">
                    <mxGeometry relative="1" as="geometry"/>
                </mxCell>
                <mxCell id="kmZ-sMRNYnv9kZFRikgs-10" style="edgeStyle=none;html=1;exitX=0.5;exitY=1;exitDx=0;exitDy=0;fontFamily=Helvetica;fontSize=12;fontColor=default;" parent="1" source="kmZ-sMRNYnv9kZFRikgs-6" target="kmZ-sMRNYnv9kZFRikgs-11" edge="1">
                    <mxGeometry relative="1" as="geometry">
                        <mxPoint x="249.92592592592587" y="200" as="targetPoint"/>
                    </mxGeometry>
                </mxCell>
                <mxCell id="kmZ-sMRNYnv9kZFRikgs-6" value="isStudent" style="rhombus;whiteSpace=wrap;html=1;strokeColor=default;align=center;verticalAlign=middle;fontFamily=Helvetica;fontSize=12;fontColor=default;fillColor=default;" parent="1" vertex="1">
                    <mxGeometry x="210" y="60" width="80" height="80" as="geometry"/>
                </mxCell>
                <mxCell id="kmZ-sMRNYnv9kZFRikgs-11" value="SEND OTP TO STUDENT EMAIL" style="rounded=0;whiteSpace=wrap;html=1;strokeColor=default;align=center;verticalAlign=middle;fontFamily=Helvetica;fontSize=12;fontColor=default;fillColor=default;" parent="1" vertex="1">
                    <mxGeometry x="189.99592592592586" y="190" width="120" height="60" as="geometry"/>
                </mxCell>
                <mxCell id="kmZ-sMRNYnv9kZFRikgs-12" value="yes" style="text;html=1;align=center;verticalAlign=middle;whiteSpace=wrap;rounded=0;fontFamily=Helvetica;fontSize=12;fontColor=default;" parent="1" vertex="1">
                    <mxGeometry x="235" y="143" width="60" height="30" as="geometry"/>
                </mxCell>
                <mxCell id="ibXyV8XKPU3XdXDeJMgd-3" style="edgeStyle=none;html=1;exitX=1;exitY=0.75;exitDx=0;exitDy=0;entryX=0.163;entryY=0.675;entryDx=0;entryDy=0;entryPerimeter=0;" edge="1" parent="1" source="kmZ-sMRNYnv9kZFRikgs-1" target="kmZ-sMRNYnv9kZFRikgs-6">
                    <mxGeometry relative="1" as="geometry"/>
                </mxCell>
            </root>
        </mxGraphModel>
    </diagram>
    <diagram id="qO4fop91Y_fib5JJCreM" name="Admin">
        <mxGraphModel dx="1072" dy="467" grid="1" gridSize="10" guides="1" tooltips="1" connect="1" arrows="1" fold="1" page="1" pageScale="1" pageWidth="1100" pageHeight="850" math="0" shadow="0">
            <root>
                <mxCell id="0"/>
                <mxCell id="1" parent="0"/>
                <mxCell id="oUDKikRHwdLziCdPv7gU-3" value="&lt;h1 style=&quot;margin-top: 0px;&quot;&gt;Heading&lt;/h1&gt;&lt;p&gt;Lorem ipsum dolor sit amet, consectetur adipisicing elit, sed do eiusmod tempor incididunt ut labore et dolore magna aliqua.&lt;/p&gt;" style="text;html=1;whiteSpace=wrap;overflow=hidden;rounded=0;" vertex="1" parent="1">
                    <mxGeometry x="250" y="140" width="180" height="120" as="geometry"/>
                </mxCell>
            </root>
        </mxGraphModel>
    </diagram>
</mxfile>